<svg width="229" height="182" viewBox="0 0 229 182" fill="none" xmlns="http://www.w3.org/2000/svg">
<path d="M182.821 0C183.123 0.111261 183.398 0.475796 183.546 0.750106C195.926 23.7618 196.398 52.4462 190.011 77.2996C192.657 82.1195 194.636 87.2763 195.895 92.629C196.887 96.8873 197.632 101.583 199.155 105.638C201.389 111.588 204.9 116.457 208.866 121.311C214.212 119.17 221.981 115.951 227.66 114.191C228.224 114.015 228.745 114.963 228.645 115.736C227.63 116.882 212.933 122.265 210.435 123.186C211.37 124.534 212.697 125.835 213.788 127.398C212.251 130.142 210.873 132.01 209.001 134.49C214.075 133.837 219.184 133.403 224.237 132.597C225.494 132.397 226.922 132.378 226.864 134.086C226.469 134.556 226.263 134.698 225.62 134.808C219.431 135.867 212.981 136.235 206.78 137.166C204.04 140.625 202.054 142.911 198.998 146.09C206.193 148.736 213.601 150.879 220.873 153.296C221.553 153.521 221.879 153.782 222.161 154.45C222.155 155.111 222.113 155.071 221.706 155.613C221.536 155.662 221.366 155.713 221.196 155.763C213.983 153.632 203.837 150.456 196.986 147.98C177.523 167.122 152.041 178.949 124.858 181.458C117.474 182.203 111.608 182.103 104.22 181.62C78.8564 179.962 56.0259 172.753 36.2161 156.608C33.4289 154.412 30.4099 151.425 27.9472 148.895C24.6862 149.822 5.84218 156.349 4.15424 155.936C3.79902 155.849 3.82127 155.734 3.64892 155.449C4.00212 153.062 9.19378 152.26 11.3191 151.596C16.2109 150.097 21.0894 148.553 25.9534 146.965C23.0942 144.086 20.023 140.187 17.5149 136.985C14.3531 136.632 11.1617 136.38 8.00591 136.003C6.814 135.861 -0.791028 135.901 1.93993 133.186C2.845 132.933 14.1034 134.299 15.7177 134.5C14.3947 132.625 12.585 130.194 11.7273 128.142C12.9196 126.562 14.697 124.633 16.0196 122.957C12.9864 121.703 1.29139 117.782 0.01451 115.924C-0.00531482 115.254 -0.0716693 115.591 0.411812 114.933C1.70528 114.446 4.62356 115.936 6.02182 116.473C9.89412 117.94 13.7474 119.456 17.5805 121.022C21.9043 115.819 26.8759 108.35 28.4772 101.809C30.2509 94.5646 31.3676 88.8105 34.3603 81.8884C33.0685 78.1322 32.0469 74.2883 31.3037 70.386C27.5115 51.0536 27.8311 28.1791 35.5279 9.81164C36.7288 6.94595 38.5854 2.86731 40.3021 0.31517C59.81 6.91439 74.3719 20.2625 85.4576 37.2511C101.328 31.7629 122.633 31.4931 138.644 36.4784C149.393 19.633 163.873 6.72828 182.821 0Z" fill="black"/>
<path d="M139.73 39.3845C140.482 38.3754 141.228 37.1993 141.931 36.1458C151.743 21.441 165.102 9.40822 181.814 3.05054C182.314 3.94346 182.827 5.06012 183.288 5.99755C185.747 10.6309 187.71 16.9784 188.861 22.0932C193.035 40.633 192.084 58.9204 187.31 77.2012C191.421 86.2134 193.726 92.3858 195.402 102.281C196.51 108.821 202.145 117.24 206.426 122.295L196.706 126.027C195.133 126.63 193.401 127.179 191.913 127.929C190.958 128.411 190.208 128.834 190.728 129.862C191.225 130.2 191.274 130.317 192.032 130.147C193.933 129.719 196.112 128.764 197.94 128.057L207.856 124.241C208.832 125.393 209.815 126.539 210.805 127.678C209.075 130.161 207.305 132.616 205.494 135.041C202.713 135.302 193.43 135.677 191.997 137.308C191.866 138.009 191.835 137.663 192.202 138.368C193.604 139.17 200.757 137.765 203.139 137.675C201.146 140.132 198.485 142.911 196.288 145.244C194.963 144.861 192.095 143.739 191.007 144.186C190.433 144.939 190.534 144.547 190.479 145.338C191.125 146.42 192.934 146.719 194.191 147.086C174.72 167.187 143.169 179.076 115.446 179.416C84.6022 179.795 54.6013 171.152 32.1232 149.357C31.6288 148.88 31.1401 148.396 30.6566 147.907C32.0917 147.479 36.5458 146.533 36.9569 145.053C36.702 144.278 36.9083 144.603 36.3115 144.043C34.9922 143.79 30.2233 145.558 28.7041 146.055C25.9925 143.363 23.6297 140.442 21.2394 137.466C23.3477 137.663 34.2587 139.008 35.2855 138.243C35.5788 137.621 35.5319 137.933 35.4801 137.284C33.9621 135.604 22.556 135.458 19.2744 134.875C17.7143 132.783 16.2056 130.652 14.7499 128.485L18.5514 123.972C22.208 125.335 25.8424 126.755 29.4542 128.233C31.3189 129 35.5262 131.474 37.1401 129.817C37.1013 129.469 37.1333 129.152 36.7384 128.938C31.963 126.353 25.0195 124.207 20.1442 121.941C23.9049 117.203 27.127 112.606 29.4238 106.935C31.5548 101.673 32.3187 96.1517 33.8452 90.7173C34.7001 87.7055 35.9765 84.8435 37.079 81.9199C29.3195 59.8744 29.1418 28.6811 39.4584 7.34645C39.5984 7.06081 39.7449 6.7784 39.8974 6.49923C40.3525 5.45054 40.9076 4.44595 41.4413 3.43368C56.2124 9.37099 66.9489 17.3915 77.1016 29.8095C79.9365 33.2768 81.9526 36.6996 84.5602 40.1613C103.767 33.8781 120.288 33.9545 139.73 39.3845Z" fill="#2D3339"/>
<path d="M139.73 39.3845C140.482 38.3754 141.228 37.1993 141.931 36.1458C151.743 21.441 165.102 9.40822 181.814 3.05054C182.314 3.94346 182.827 5.06012 183.288 5.99755C167.406 12.1695 156.341 20.9915 146.354 35.0368C144.406 37.7771 143.294 40.1754 141.619 42.9525L141.224 42.8923C137.375 42.2886 132.328 40.8762 128.215 40.0662C112.92 37.0553 96.9316 37.4882 82.3184 43.4676C79.7836 39.5439 77.7117 36.1656 74.9031 32.4082C65.8217 20.2576 53.8569 12.1776 39.8974 6.49923C40.3526 5.45054 40.9077 4.44595 41.4413 3.43368C56.2124 9.37099 66.9489 17.3915 77.1016 29.8095C79.9366 33.2768 81.9526 36.6996 84.5602 40.1613C103.767 33.8781 120.288 33.9545 139.73 39.3845Z" fill="#7B7E82"/>
<path d="M69.5767 86.8584C74.7741 86.4745 80.6418 88.7652 84.6739 91.9906C90.7128 96.8214 93.9264 104.424 94.8027 111.968C95.2696 115.989 94.7829 118.293 92.2332 121.451C87.5566 127.22 80.764 130.876 73.373 131.602C67.7933 132.413 60.3578 129.546 56.2047 125.89C51.6236 121.858 48.4002 115.875 48.0046 109.752C47.6113 104.213 49.4404 98.7452 53.0874 94.5581C57.3546 89.7063 63.2134 87.2755 69.5767 86.8584Z" fill="#F9B76C"/>
<path d="M67.8354 95.328C72.2033 86.2697 76.4665 91.6317 78.3519 98.4697C80.5346 106.385 80.5342 116.457 76.6546 123.932C70.9592 133.742 66.0702 120.632 65.6134 115.614C65.242 111.537 64.7715 105.938 65.8376 102.322C64.5223 102.023 63.4804 101.021 63.1293 99.719C62.7781 98.417 63.175 97.0277 64.161 96.1077C65.1473 95.1876 66.561 94.8878 67.8354 95.328Z" fill="black"/>
<path d="M65.8376 102.322C64.5223 102.023 63.4804 101.021 63.1293 99.7189C62.7781 98.417 63.175 97.0276 64.161 96.1076C65.1473 95.1876 66.561 94.8878 67.8354 95.328C69.6637 95.9599 70.6793 97.9108 70.148 99.7711C69.6164 101.631 67.7238 102.751 65.8376 102.322Z" fill="#F2F2F2"/>
<path d="M152.149 87.2589C156.833 86.5594 163.211 88.7425 167.013 91.5208C171.547 94.8522 174.533 99.8812 175.288 105.456C177.232 118.995 167.599 129.542 154.49 131.419C148.648 132.111 142.763 130.544 138.038 127.041C135.348 125.055 131.106 120.939 130.944 117.384C130.317 103.629 137.098 88.804 152.149 87.2589Z" fill="#F9B76C"/>
<path d="M148.973 95.4523C153.491 86.5583 158.125 93.9367 159.548 99.8137C161.365 107.319 161.391 117.068 157.642 124.079C152.537 132.627 147.532 120.921 146.909 116.312C146.492 113.23 145.436 104.97 146.916 102.641C142.743 100.832 143.692 95.5765 148.973 95.4523Z" fill="black"/>
<path d="M146.916 102.641C142.743 100.832 143.692 95.5765 148.973 95.4523C151.177 96.5131 152.741 98.5607 151.349 100.978C150.853 101.831 150.036 102.45 149.08 102.696C148.326 102.893 147.668 102.772 146.916 102.641Z" fill="#F2F2F2"/>
<path d="M176.754 13.2623C177.612 13.2854 177.576 13.2583 178.316 13.6702C178.487 14.0015 178.715 14.3256 178.456 14.7035C176.697 17.362 171.345 21.3666 171.086 24.7854C170.346 34.5966 172.379 44.4584 171.873 54.3995C173.451 56.3193 178.345 61.0558 178.397 63.2697C178.021 63.8766 178.264 63.6055 177.502 63.9753C177.317 63.9514 177.131 63.9276 176.946 63.9037C175.425 62.3792 173.172 59.5669 171.764 58.0829C165.804 51.9858 162.258 49.8629 155.242 45.5549C158.794 35.8533 164.128 26.9014 170.969 19.1604C172.773 17.0901 174.622 14.9944 176.754 13.2623Z" fill="black"/>
<path d="M45.8557 13.4128C46.0491 13.4315 46.6613 13.4962 46.8085 13.6147C56.2718 21.2222 64.5772 34.9061 68.5175 45.9421C61.9858 49.8152 58.9021 51.7827 53.3665 57.1799C52.1661 58.3863 47.4381 64.144 46.9712 64.1995C42.3864 64.7432 51.5705 55.2423 52.071 54.6771C51.0086 45.3946 54.2396 32.9058 52.4323 23.7796C51.9335 21.2606 46.0762 16.5799 45.2711 14.7459C45.3059 13.9562 45.3209 14.1755 45.8557 13.4128Z" fill="black"/>
<path d="M110.482 129.739C112.575 129.365 115.979 129.643 118.13 129.796C130.342 130.665 121.185 139.164 115.589 141.885C115.587 144.149 115.327 145.629 116.337 147.696C117.464 150.024 119.503 151.784 121.97 152.561C124.151 153.261 126.523 153.022 128.52 151.901C133.803 148.946 131.501 144.412 133.963 143.208C135.136 143.407 135.469 144.104 135.304 145.205C133.512 157.153 120.909 158.664 114.353 149.589C113.894 149.567 113.175 150.72 112.821 151.157C108.432 156.585 100.85 157.452 95.0903 153.665C93.1426 152.384 89.5657 146.518 91.0015 144.287C91.7913 143.87 91.3673 143.999 92.3541 144.014C92.6579 144.247 93.9061 148.699 95.0462 150.025C99.8349 155.591 108.489 154.407 111.818 147.895C112.945 145.691 113.007 144.417 113.165 141.958C106.718 139.167 96.8713 131.239 110.482 129.739Z" fill="black"/>
</svg>
